<svg width="1443" height="1962" viewBox="0 0 1443 1962" fill="none" xmlns="http://www.w3.org/2000/svg">
<path d="M0 1240.5C0 842.027 323.027 519 721.5 519V519C1119.97 519 1443 842.027 1443 1240.5V1240.5C1443 1638.97 1119.97 1962 721.5 1962V1962C323.027 1962 0 1638.97 0 1240.5V1240.5Z" fill="#FE9256"/>
<path d="M487.62 1636.81V1460.58C487.62 1442.43 495.513 1426.29 507.851 1415H460.551C426.628 1415 399 1442.61 399 1476.88V1653.12C399 1687.37 426.628 1715 460.551 1715H996.68C1012.63 1715 1027.05 1708.73 1038 1698.71H549.176C515.247 1698.71 487.62 1671.09 487.62 1636.81Z" fill="white"/>
<path d="M1110.41 229.585C1112.22 222.515 1115.21 216.106 1119 210.373C1115.47 207.879 1112.23 205.037 1108.15 203.253C1099.69 199.751 1091.22 198 1082.75 198C1054.52 198 1028.41 216.865 1021.01 245.874L992 362.42L994.334 696L1110.41 229.585" fill="#FFCC99"/>
<path d="M1215.69 650.937C1217.21 648.406 1219.24 646.52 1221 644.271C1210.22 637.655 1198.15 634 1185.9 634C1175.7 634 1165.61 636.597 1156.27 641.096L1125 801L1215.69 650.937" fill="#FFCC99"/>
<path d="M617.45 215.665C617.45 213.915 617.103 212.164 617.103 210.777C617.103 197.765 621.556 185.843 628.496 175.671C614.038 165.466 595.517 161.189 576.981 165.929C548.818 172.913 529 198.063 529 227.042C529 228.446 529.349 230.18 529.349 231.93L546.176 465.124L655 736L617.45 215.665Z" fill="#FFCC99"/>
<path d="M853.439 86.7255C854.144 72.0319 859.561 58.7266 868 47.9336C857.767 41.752 845.899 38 833.088 38C796.501 38 766.882 66.6601 765.141 103.022L757 283.412L826.257 689L853.439 86.7255" fill="#FFCC99"/>
<path d="M606.702 1129.78L412.59 461.387C410.848 455.465 410.156 449.873 410.156 443.951C410.156 432.289 413.571 420.974 419.677 411.242C401.788 397.963 377.442 394.664 355.745 405.435C334.524 415.893 322 437.518 322 460.199C322 466.137 322.696 471.713 324.436 477.651L518.551 1146.03V1415H936V1398.74H606.702V1129.78Z" fill="white"/>
<path d="M1027.25 1147.11L1245.94 735.507C1258.13 712.809 1256.39 684.895 1241.41 663.947C1235.79 655.842 1228.71 649.883 1221.09 645.211C1219.34 647.456 1217.31 649.338 1215.79 651.864L1125.25 801.636L1156.47 642.042C1145.06 647.539 1134.82 656.023 1127.54 668.123L1037 817.896L1143.56 273.28C1148.29 248.668 1137.37 224.715 1117.7 210.585C1113.96 216.313 1111.01 222.718 1109.23 229.783L994.653 695.856L992.35 362.52L906.406 712.116L902.227 107.463C901.996 82.949 888.747 61.7864 869.213 50C860.779 60.7794 855.365 74.0681 854.66 88.7432L827.494 690.26L758.277 285.183L739.25 706.536L655.672 217.436C652.68 200.103 642.835 185.873 629.612 176.547C622.662 186.715 618.201 198.634 618.201 211.642C618.201 213.028 618.549 214.778 618.549 216.528L656.16 736.696L547.16 465.907L567.914 752.955L441.155 438.058C436.683 427.031 429.324 418.282 420.531 411.762C414.418 421.501 411 432.826 411 444.496C411 450.423 411.693 456.019 413.437 461.945L607.753 1130.85V1400H937.399V1251.85L1027.25 1147.11Z" fill="#FFCC99"/>
<path fill-rule="evenodd" clip-rule="evenodd" d="M551.493 231.972C551.446 230.293 551.294 228.863 551.221 228.176L551.211 228.076L551.162 227.598C551.385 209.193 564.09 193.086 582.4 188.557L582.563 188.517C605.505 182.657 628.866 197.774 632.956 221.396C632.957 221.402 632.955 221.391 632.956 221.396L716.475 709.782L760 702.313L676.471 213.87C668.028 164.999 619.752 133.417 571.733 145.632C533.869 155.036 507 188.871 507 228.092C507 229.312 507.074 230.366 507.133 231.068C507.184 231.666 507.249 232.274 507.285 232.613L507.297 232.728C507.324 232.988 507.34 233.154 507.349 233.249V233.772L544.992 754L589.035 750.802L551.493 231.972Z" fill="#231F20"/>
<path fill-rule="evenodd" clip-rule="evenodd" d="M878.937 105.824L883.09 711L927 710.693L922.847 105.464L922.847 105.411C922.389 55.8297 882.459 16 833.41 16C785.271 16 746.284 54.0269 743.996 102.108L743.993 102.17L717 704.259L760.866 706.264L787.857 104.236C787.857 104.227 787.858 104.218 787.858 104.209C789.043 79.6013 808.884 60.3396 833.41 60.3396C858.411 60.3396 878.691 80.6079 878.937 105.799C878.937 105.808 878.937 105.816 878.937 105.824Z" fill="#231F20"/>
<path fill-rule="evenodd" clip-rule="evenodd" d="M1122.73 266.435L1015.36 813.435L1059.05 822L1166.45 274.858C1174.04 235.482 1153.16 196.244 1116.73 180.169L1116.53 180.078L1116.32 179.992C1105.41 175.438 1094.08 173 1082.48 173C1044.48 173 1009.42 198.596 999.483 237.848L999.45 237.979L884 706.137L927.233 716.784L1042.65 248.758C1042.66 248.738 1042.66 248.719 1042.67 248.699C1047.49 229.749 1064.35 217.497 1082.48 217.497C1087.65 217.497 1093.1 218.549 1098.95 220.964C1116.43 228.785 1126.33 247.661 1122.73 266.407C1122.73 266.416 1122.73 266.426 1122.73 266.435Z" fill="#231F20"/>
<path fill-rule="evenodd" clip-rule="evenodd" d="M496.872 1437H959.216V1258.83L1045.37 1158.56L1265.3 745.335C1265.31 745.317 1265.32 745.299 1265.33 745.28C1281.45 715.251 1279.18 678.388 1259.36 650.602C1241.34 624.779 1213.46 612.285 1185.9 612.285C1156.01 612.285 1125.93 627.08 1108.43 656.107L1023.51 796.348L857.784 814.587L759.3 1004.33L798.535 1024.73L886.12 855.984L1050.02 837.946L1146.27 679.004L1146.29 678.968C1155.27 664.067 1170.49 656.535 1185.9 656.535C1200.1 656.535 1214 662.832 1223.16 676.005L1223.24 676.13L1223.33 676.253C1233.38 690.286 1234.57 709.098 1226.37 724.36L1226.32 724.446L1008.65 1133.43L915.003 1242.42V1392.75H541.085V1142.84L345.771 471.655L345.756 471.604C344.668 467.899 344.213 464.446 344.213 460.396C344.213 445.767 352.31 432.072 365.657 425.507L365.709 425.482C386.628 415.124 411.343 424.522 420.088 446.027C420.092 446.035 420.095 446.043 420.098 446.051L546.911 760.557L587.911 743.998L461.059 429.395C442.62 383.974 390 364.097 346.119 385.813C346.114 385.816 346.109 385.818 346.105 385.82L355.907 405.651L346.157 385.794C346.144 385.801 346.132 385.807 346.119 385.813C346.114 385.816 346.109 385.818 346.105 385.82C316.972 400.174 300 429.698 300 460.396C300 468.209 300.936 475.893 303.328 484.048L324.547 477.842L303.337 484.08L496.872 1149.15V1146H518.978L497.754 1152.18L496.872 1149.15V1437Z" fill="#231F20"/>
<path d="M496.872 1149.15V1146H518.978L497.754 1152.18L496.872 1149.15Z" fill="#231F20"/>
<path d="M346.105 385.82C346.109 385.818 346.114 385.816 346.119 385.813C346.132 385.807 346.144 385.801 346.157 385.794L355.907 405.651L346.105 385.82Z" fill="#231F20"/>
<path d="M303.328 484.048L324.547 477.842L303.337 484.08L303.328 484.048Z" fill="#231F20"/>
<path d="M396 1479.89C396 1447.36 422.402 1421 454.971 1421H992.03C1024.6 1421 1051 1447.36 1051 1479.89V1622.11C1051 1654.64 1024.6 1681 992.029 1681H454.97C422.402 1681 396 1654.64 396 1622.11V1479.89Z" fill="white"/>
<path fill-rule="evenodd" clip-rule="evenodd" d="M454.468 1381H992.532C1046.91 1381 1091 1425.13 1091 1479.57V1622.43C1091 1676.87 1046.91 1721 992.532 1721H454.468C400.086 1721 356 1676.87 356 1622.43V1479.57C356 1425.13 400.086 1381 454.468 1381ZM454.468 1420.43C421.839 1420.43 395.387 1446.91 395.387 1479.57V1622.43C395.387 1655.09 421.839 1681.57 454.468 1681.57H992.532C1025.16 1681.57 1051.61 1655.09 1051.61 1622.43V1479.57C1051.61 1446.91 1025.16 1420.43 992.532 1420.43H454.468Z" fill="#231F20"/>
<path d="M461 1470.07C461 1442.97 483.005 1421 510.15 1421H1001.85C1028.99 1421 1051 1442.97 1051 1470.07V1631.93C1051 1659.03 1028.99 1681 1001.85 1681H510.15C483.005 1681 461 1659.03 461 1631.93V1470.07Z" fill="#FE6A56"/>
</svg>
