<svg width="1443" height="1964" viewBox="0 0 1443 1964" fill="none" xmlns="http://www.w3.org/2000/svg">
<path d="M0 1240.5C0 840.922 323.027 517 721.5 517V517C1119.97 517 1443 840.922 1443 1240.5V1240.5C1443 1640.08 1119.97 1964 721.5 1964V1964C323.027 1964 0 1640.08 0 1240.5V1240.5Z" fill="#FE9256"/>
<path d="M611.136 588.397L1000.72 399.028C1004.74 397.079 1008.87 395.509 1013 394.039C983.104 383.267 949.62 384.803 920.202 399.028L530.619 588.397C493.019 606.917 469 645.362 469 687.277V1384H549.517V687.277C549.517 645.362 573.536 606.917 611.136 588.397Z" fill="white"/>
<path d="M1334 891.163V791.831C1334 760.011 1316.9 730.274 1289.66 713.835L1188.43 653.667V557.13C1188.43 524.963 1172.71 495.226 1145.84 477.397L1039.72 406.033C1031.53 400.525 1022.79 396.258 1013.72 393C1009.58 394.472 1005.44 396.043 1001.41 397.995L610.784 587.562C573.083 606.101 549 644.587 549 686.546V1384H960.821H961.531V1174.49H1042.26H1042.51L1288.28 984.209C1316.9 961.816 1334 927.548 1334 891.163" fill="#FFCC99"/>
<path d="M466.644 1622.39V1445.61C466.644 1411.64 494.173 1384 528 1384H468.292H447.372C413.546 1384 386 1411.64 386 1445.61V1622.39C386 1656.34 413.546 1684 447.372 1684H528C494.173 1684 466.644 1656.34 466.644 1622.39Z" fill="white"/>
<path fill-rule="evenodd" clip-rule="evenodd" d="M444 1406H959.74V1361.68H488.384V687.389C488.384 654.029 507.618 623.293 537.826 608.464C537.844 608.456 537.861 608.447 537.879 608.439L929.15 419.213C929.158 419.21 929.166 419.206 929.173 419.202C960.725 404.029 997.796 406.427 1026.41 425.66L1026.43 425.677L1132.77 496.939L1132.88 497.016C1153.52 510.664 1165.62 533.377 1165.62 558.159V799.162C1165.62 829.314 1148.91 856.496 1122.26 869.793L1122.13 869.861L892.285 986.543C866.941 999.469 836.898 998.386 812.608 984.078C812.596 984.072 812.585 984.065 812.574 984.058L669.083 898.78C647.263 886.027 633.885 862.607 633.885 837.229C633.885 819.805 641.03 803.972 652.662 792.036C663.952 780.825 679.977 773.824 697.402 773.824H760.369V729.506H697.402C668.002 729.506 640.701 741.325 621.199 760.777L621.007 760.968C601.931 780.466 589.501 807.203 589.501 837.229C589.501 878.18 611.091 916.204 646.589 936.986C646.613 937 646.637 937.014 646.661 937.028L789.939 1022.18L790.004 1022.22C827.262 1044.19 873.44 1045.91 912.452 1026.02C912.46 1026.02 912.467 1026.01 912.475 1026.01L1142.11 909.436C1142.13 909.424 1142.15 909.413 1142.17 909.402C1184.06 888.468 1210 845.811 1210 799.162V558.159C1210 518.724 1190.63 482.073 1157.45 460.109C1157.43 460.094 1157.41 460.08 1157.39 460.065L1051.19 388.897C1051.19 388.892 1051.18 388.886 1051.17 388.881C1051.17 388.88 1051.17 388.881 1051.17 388.881C1009.13 360.637 955.259 357.454 909.881 379.29L909.842 379.309L518.427 568.604L518.323 568.655C473.008 590.862 444 636.971 444 687.389V1406Z" fill="#231F20"/>
<path fill-rule="evenodd" clip-rule="evenodd" d="M1034.3 1151.86H716V1196H1049.44L1301.68 1002.1C1335.59 975.75 1356 935.319 1356 892.168V793.384C1356 753.838 1334.66 717.171 1300.86 696.914L1300.73 696.836L1199.33 637L1176.7 674.961L1277.96 734.72C1277.98 734.732 1278 734.743 1278.02 734.755C1298.75 747.202 1311.64 769.661 1311.64 793.384V892.168C1311.64 921.369 1297.81 949.082 1274.41 967.276C1274.4 967.287 1274.38 967.298 1274.37 967.308L1034.3 1151.86Z" fill="#231F20"/>
<path fill-rule="evenodd" clip-rule="evenodd" d="M939 1174V1384H982V1174H939Z" fill="#231F20"/>
<path fill-rule="evenodd" clip-rule="evenodd" d="M784 844V655H738V844H784Z" fill="#231F20"/>
<path d="M370 1449.66C370 1417.26 396.402 1391 428.971 1391H966.03C998.598 1391 1025 1417.26 1025 1449.66V1591.34C1025 1623.74 998.598 1650 966.029 1650H428.97C396.402 1650 370 1623.74 370 1591.34V1449.66Z" fill="white"/>
<path fill-rule="evenodd" clip-rule="evenodd" d="M428.468 1350H966.532C1020.91 1350 1065 1394.13 1065 1448.57V1591.43C1065 1645.87 1020.91 1690 966.532 1690H428.468C374.086 1690 330 1645.87 330 1591.43V1448.57C330 1394.13 374.086 1350 428.468 1350ZM428.468 1389.43C395.839 1389.43 369.387 1415.91 369.387 1448.57V1591.43C369.387 1624.09 395.839 1650.57 428.468 1650.57H966.532C999.161 1650.57 1025.61 1624.09 1025.61 1591.43V1448.57C1025.61 1415.91 999.161 1389.43 966.532 1389.43H428.468Z" fill="#231F20"/>
<path d="M435 1439.88C435 1412.89 457.005 1391 484.15 1391H975.85C1002.99 1391 1025 1412.89 1025 1439.88V1601.12C1025 1628.11 1002.99 1650 975.85 1650H484.15C457.005 1650 435 1628.11 435 1601.12V1439.88Z" fill="#FE6A56"/>
</svg>
