<svg width="1443" height="1962" viewBox="0 0 1443 1962" fill="none" xmlns="http://www.w3.org/2000/svg">
<path d="M0 1240.5C0 842.027 323.027 519 721.5 519V519C1119.97 519 1443 842.027 1443 1240.5V1240.5C1443 1638.97 1119.97 1962 721.5 1962V1962C323.027 1962 0 1638.97 0 1240.5V1240.5Z" fill="#FE9256"/>
<path d="M1095.66 138.094C1122.95 149.98 1138.7 179.358 1132.75 208.718L1019.03 793.653V794L882.919 722.317C864.027 712.183 840.934 719.176 830.436 737.709L817.839 760.076C813.639 767.433 811.191 775.468 810.142 783.155L756.957 784.213C756.957 778.261 756.257 771.979 754.506 765.681L688.726 515.701L604.4 103.839C603.351 99.2932 603 94.7469 603 90.2006C603 60.8232 621.894 34.2566 650.586 25.164C688.377 13.2775 728.265 36.0089 737.361 74.4623L878.722 630.73L1008.53 180.052C1016.23 151.385 1042.48 132.853 1070.47 132.853C1078.87 132.853 1087.26 134.606 1095.66 138.094" fill="#FFCC99"/>
<path d="M491.306 755.198V674.188C491.306 644.152 510.261 617.27 538.693 607.132L698 550.313L688.929 516L433.388 607.132C404.955 617.27 386 644.152 386 674.188V755.198L500.784 1111.75V1381H606.088V1111.75L491.306 755.198" fill="white"/>
<path d="M1010.23 1111.65L1101.2 941.176C1124.99 896.807 1108.2 841.255 1063.41 817.502L1018.28 793.748L882.17 722.124C863.278 711.998 840.186 718.985 829.689 737.502L817.092 759.852C812.893 767.203 810.444 775.231 809.396 782.912L756.213 783.969C756.213 778.022 755.513 771.745 753.763 765.452L697.026 550L538.234 606.84C509.893 616.983 491 643.875 491 673.922V754.962L605.411 1111.65V1381H920.309V1216.46L1010.23 1111.65" fill="#FFCC99"/>
<path d="M486.362 1619.74V1442.61C486.362 1408.64 513.58 1381 547 1381H501.177H443.64C410.22 1381 383 1408.64 383 1442.61V1619.74C383 1653.69 410.22 1681 443.64 1681H547C513.58 1681 486.362 1653.69 486.362 1619.74Z" fill="white"/>
<path fill-rule="evenodd" clip-rule="evenodd" d="M856.161 637L899 626.071L758.317 69.4263C746.227 18.5211 693.662 -11.5584 643.836 4.20011L643.791 4.21449C605.894 16.2901 581 51.5585 581 90.4787C581 96.0665 581.419 102.28 582.892 108.825L666.788 520.844L710.09 511.943L626.088 99.4111L626.027 99.1429C625.465 96.6948 625.198 93.909 625.198 90.4787C625.198 70.5954 637.912 52.6854 657.128 46.5508C682.473 38.5482 709.243 53.8792 715.349 79.8326L715.391 80.0115L856.161 637Z" fill="#231F20"/>
<path fill-rule="evenodd" clip-rule="evenodd" d="M1110.57 205.515L996.406 788.567L1040.16 797L1154.31 214.029C1162.36 174.363 1140.92 134.98 1104.12 119.066L1103.95 118.99L1103.77 118.918C1092.87 114.422 1081.54 112 1069.92 112C1032.31 112 996.818 136.627 986.276 175.219L856 624.27L898.835 636.501L1029.22 187.081L1029.27 186.888C1034.26 168.451 1051.4 156.221 1069.92 156.221C1075.12 156.221 1080.59 157.271 1086.48 159.677C1104.35 167.494 1114.44 186.567 1110.61 205.344L1110.57 205.515Z" fill="#231F20"/>
<path fill-rule="evenodd" clip-rule="evenodd" d="M479.21 1403H942.645V1224.2L1028.66 1123.6L1120.59 950.741C1150.12 895.477 1129.28 826.346 1073.73 796.783L1073.67 796.75L892.814 701.252C863.119 685.337 827.004 696.541 810.743 725.324L798.204 747.646C798.193 747.666 798.182 747.686 798.17 747.706C792.422 757.823 789.191 768.622 787.814 778.743L787.786 778.947C784.048 808.453 795.67 839.136 820.771 858.174L872.386 898.006L872.466 898.067L925.554 938.653L952.438 903.356L899.43 862.832L899.35 862.77L847.567 822.808C835.742 813.866 829.933 799.171 831.739 784.637C832.461 779.426 834.104 774.204 836.7 769.643L836.763 769.532L849.31 747.194C849.314 747.187 849.318 747.18 849.322 747.173C854.008 738.904 863.935 736.113 871.934 740.415L872.083 740.495L1007.95 812.234L1052.94 835.993C1052.95 835.999 1052.96 836.005 1052.97 836.011C1086.81 854.043 1099.48 896.179 1081.52 929.786L991.835 1098.42L898.328 1207.78V1358.6H523.527V1107.54L409.317 750.279V672.576C409.317 651.821 422.33 633.269 441.786 626.283L673.292 543.142L732.844 770.046L732.884 770.193C734.024 774.306 734.522 778.566 734.522 782.801C734.522 807.092 717.374 828.666 692.762 833.01L692.662 833.028L594.171 850.88L594.148 850.884C570.283 855.235 547.07 841.43 539.459 819.03L539.394 818.838L506.212 724.017L464.39 738.706L497.541 833.438C512.316 876.762 556.83 902.816 602.083 894.566L700.451 876.736C700.468 876.733 700.486 876.729 700.504 876.726C747.115 868.474 778.84 827.752 778.84 782.801C778.84 775.171 777.952 766.912 775.629 758.471L703.856 485L426.834 584.487C389.706 597.819 365 633.138 365 672.576V757.215L479.21 1114.48V1403Z" fill="#231F20"/>
<path fill-rule="evenodd" clip-rule="evenodd" d="M753.187 1072L902 894.14L868.813 865L720 1042.86L753.187 1072Z" fill="#231F20"/>
<path d="M362 1453.34C362 1420.57 388.523 1394 421.241 1394H960.759C993.477 1394 1020 1420.57 1020 1453.34V1596.66C1020 1629.43 993.477 1656 960.759 1656H421.241C388.523 1656 362 1629.43 362 1596.66V1453.34Z" fill="white"/>
<path fill-rule="evenodd" clip-rule="evenodd" d="M420.468 1353H958.532C1012.91 1353 1057 1397.13 1057 1451.57V1594.43C1057 1648.87 1012.91 1693 958.532 1693H420.468C366.086 1693 322 1648.87 322 1594.43V1451.57C322 1397.13 366.086 1353 420.468 1353ZM420.468 1392.43C387.839 1392.43 361.387 1418.91 361.387 1451.57V1594.43C361.387 1627.09 387.839 1653.57 420.468 1653.57H958.532C991.161 1653.57 1017.61 1627.09 1017.61 1594.43V1451.57C1017.61 1418.91 991.161 1392.43 958.532 1392.43H420.468Z" fill="#231F20"/>
<path d="M427 1443.45C427 1416.14 449.117 1394 476.4 1394H970.6C997.883 1394 1020 1416.14 1020 1443.45V1606.55C1020 1633.86 997.883 1656 970.6 1656H476.4C449.117 1656 427 1633.86 427 1606.55V1443.45Z" fill="#FE6A56"/>
</svg>
